# xmcd
#
# Track frame offsets:
#	150
#	16282
#	34785
#	53680
#	71687
#	93729
#	110600
#	128777
#	144925
#	160597
#	174920
#
# Disc length: 2489 seconds
#
# Revision: 1
# Processed by: cddbd v1.4PL0 Copyright (c) Steve Scherf et al.
# Submitted via: audiograbber 1.81.03
#
DISCID=8a09b70b
DTITLE=Various Artist - Lone Star Blues (ED CD 9009)
DYEAR=1997
DGENRE=Blues
TTITLE0=Johnny Copeland - Houston
TTITLE1=Albert Colllins - Meltdown
TTITLE2=Smokin' Joe Kubek Band Ft Bnois King - Got  My Mind Back
TTITLE3=Pat Boyack and The Prowlers - Shuck 'n' Jive
TTITLE4=Robert Ealey - She's A Rocket
TTITLE5=Mike Morgan and The Crawl - Lone Star Boogie
TTITLE6=Andrew "Junior Boy" Jones - Hoochie Mama
TTITLE7=Darrell Nulisch and Texas Heat - Love And War
TTITLE8=Angela Strehli - Say It's Not So
TTITLE9=Gary Primich - Dallas, Texas
TTITLE10=Teddy Reynolds - Texas Son
EXTD=
EXTT0=
EXTT1=
EXTT2=
EXTT3=
EXTT4=
EXTT5=
EXTT6=
EXTT7=
EXTT8=
EXTT9=
EXTT10=
PLAYORDER=
